<svg id="Layer_1" width='40' height='40' data-name="Layer 1" xmlns="http://www.w3.org/2000/svg" viewBox="0 0 19 19"><path d="M9.5.08A9.38,9.38,0,0,0,.21,9.54,9.37,9.37,0,0,0,9.5,19a9.37,9.37,0,0,0,9.29-9.46A9.38,9.38,0,0,0,9.5.08ZM14,15.34H10.77L7.47,9.9,6.4,15.34H2.63L4.93,3.65H8.11l3.3,5.44,1.07-5.44h3.78Z" style="fill:#4c98d3"/><polygon points="12.48 3.65 11.41 9.09 8.11 3.65 4.93 3.65 2.63 15.34 6.41 15.34 7.47 9.9 10.77 15.34 13.96 15.34 16.26 3.65 12.48 3.65" style="fill:#4c98d3;stroke:#fff;stroke-miterlimit:10;stroke-width:0.75px"/></svg>