<?xml version="1.0" encoding="utf-8"?>
<!-- Generator: Adobe Illustrator 24.1.3, SVG Export Plug-In . SVG Version: 6.00 Build 0)  -->
<svg version="1.1" id="Layer_1" xmlns="http://www.w3.org/2000/svg" xmlns:xlink="http://www.w3.org/1999/xlink" x="0px" y="0px"
	 viewBox="0 0 1440 199.2" style="enable-background:new 0 0 1440 199.2;" xml:space="preserve">
<style type="text/css">
	.st0{fill:#1A202D;}
</style>
<path class="st0" d="M0,125.4l48-7.7c48-7.4,144-23.3,240-34.6c96-11.7,192-18.9,288-15.3s192,19.4,288,26.9c96,7.7,192,7.7,288,3.9
	c96-4.1,192-11.3,240-15.4l48-3.8v138.3h-48c-48,0-144,0-240,0s-192,0-288,0s-192,0-288,0s-192,0-288,0s-192,0-240,0H0V125.4z"/>
</svg>
